
          <svg data-logo="logo" xmlns="http://www.w3.org/2000/svg" viewBox="0 0 203 42">
            <g id="logogram" transform="translate(0, 1) rotate(0)"><path d="M20.0277 10C20.0277 15.5228 15.5506 20 10.0277 20H0.02771V10C0.02771 4.47715 4.50486 0 10.0277 0C15.5506 0 20.0277 4.47715 20.0277 10Z" fill="#9F5BFF"/><path d="M20.0277 30C20.0277 24.4772 24.5049 20 30.0277 20H40.0277V30C40.0277 35.5228 35.5506 40 30.0277 40C24.5049 40 20.0277 35.5228 20.0277 30Z" fill="#9F5BFF"/><path d="M0.02771 30C0.02771 35.5228 4.50486 40 10.0277 40H20.0277V30C20.0277 24.4772 15.5506 20 10.0277 20C4.50486 20 0.02771 24.4772 0.02771 30Z" fill="#17CF97"/><path d="M40.0277 10C40.0277 4.47715 35.5506 0 30.0277 0H20.0277V10C20.0277 15.5228 24.5049 20 30.0277 20C35.5506 20 40.0277 15.5228 40.0277 10Z" fill="#17CF97"/></g>
            <g id="logotype" transform="translate(47, 9.5)"><path fill="#9f5bff" d="M16.50 11.67L16.50 11.67L14.80 11.67L14.80 22.39L16.88 22.39L16.88 23L6.48 23L6.48 22.39L8.56 22.39L8.56 1.21L6.48 1.21L6.48 0.60L16.14 0.60Q20.30 0.60 22.05 1.03Q23.79 1.46 24.50 2.07L24.50 2.07Q26.03 3.32 26.03 6.04Q26.03 8.76 24.69 9.93Q23.34 11.10 20.59 11.32L20.59 11.32L20.59 11.42Q23.18 11.77 24.21 12.95Q25.23 14.14 25.23 16.92L25.23 16.92L25.23 18.62Q25.23 20.28 25.41 20.86Q25.58 21.43 26.16 21.43Q26.74 21.43 27.07 20.90Q27.41 20.38 27.70 18.68L27.70 18.68L28.24 18.74Q27.89 21.46 27.01 22.39Q26.13 23.32 23.50 23.32Q20.88 23.32 19.78 22.09Q18.67 20.86 18.67 17.46L18.67 17.46L18.67 15.13Q18.67 13.34 18.21 12.50Q17.74 11.67 16.50 11.67ZM15.86 1.21L14.80 1.21L14.80 11.06L15.82 11.06Q17.65 11.06 18.53 9.94Q19.41 8.82 19.41 6.30L19.41 6.30L19.41 5.37Q19.41 2.84 18.56 2.02Q17.71 1.21 15.86 1.21L15.86 1.21ZM37.33 23.32Q33.20 23.32 31.14 21.19Q29.07 19.06 29.07 15.27Q29.07 11.48 31.39 9.46Q33.71 7.45 37.30 7.45L37.30 7.45Q44.56 7.45 44.27 14.74L44.27 14.74L35.25 14.74L35.25 15.99Q35.25 19.13 36.05 20.73Q36.85 22.33 38.83 22.33L38.83 22.33Q42.54 22.33 43.70 18.36L43.70 18.36L44.27 18.46Q43.66 20.76 42.08 22.04Q40.50 23.32 37.33 23.32L37.33 23.32ZM35.28 12.54L35.28 14.10L38.58 14.10L38.58 12.54Q38.58 9.94 38.27 9Q37.97 8.06 37.06 8.06Q36.14 8.06 35.71 9.06Q35.28 10.07 35.28 12.54L35.28 12.54ZM46.22 23.32L45.84 23.32L45.84 17.59L46.22 17.59Q47.06 20.38 48.46 21.50Q49.87 22.62 51.98 22.62L51.98 22.62Q55.25 22.62 55.25 20.54L55.25 20.54Q55.25 19.64 54.45 19.19L54.45 19.19Q53.20 18.49 51.25 18.10L51.25 18.10Q49.07 17.53 47.60 16.57L47.60 16.57Q45.84 15.42 45.84 12.92Q45.84 10.42 47.38 8.94Q48.91 7.45 51.47 7.45L51.47 7.45Q53.04 7.45 54.70 8.18L54.70 8.18Q55.31 8.44 55.63 8.44Q55.95 8.44 56.18 8.22Q56.40 7.99 56.72 7.38L56.72 7.38L57.07 7.38L57.07 12.28L56.69 12.28Q55.06 8.12 51.63 8.12L51.63 8.12Q50.13 8.12 49.39 8.65Q48.66 9.18 48.66 9.98L48.66 9.98Q48.66 10.46 48.88 10.73Q49.10 11 49.23 11.13Q49.36 11.26 49.65 11.40Q49.94 11.54 50.13 11.62Q50.32 11.70 50.72 11.83Q51.12 11.96 51.31 11.99L51.31 11.99Q53.49 12.54 54.45 12.94Q55.41 13.34 56.27 13.91L56.27 13.91Q58.03 15.13 58.03 17.83Q58.03 20.54 56.43 21.93Q54.83 23.32 52.05 23.32L52.05 23.32Q50.06 23.32 48.21 22.39L48.21 22.39Q47.82 22.14 47.60 22.14L47.60 22.14Q46.90 22.14 46.22 23.32L46.22 23.32ZM77.46 22.42L77.46 23L70.16 23L69.81 20.66Q69.30 21.94 68.29 22.63Q67.28 23.32 65.30 23.32L65.30 23.32Q60.34 23.32 60.34 17.98L60.34 17.98L60.34 8.34L58.54 8.34L58.54 7.77L66.29 7.77L66.29 18.74Q66.29 20.66 66.56 21.27Q66.83 21.88 67.65 21.88Q68.46 21.88 69.10 20.89Q69.74 19.90 69.74 18.14L69.74 18.14L69.74 8.34L68.27 8.34L68.27 7.77L75.70 7.77L75.70 22.42L77.46 22.42ZM78.10 8.34L78.10 7.77L85.81 7.77L85.81 10.71Q86.86 7.45 90.46 7.45Q94.06 7.45 94.83 10.90L94.83 10.90Q95.95 7.45 99.54 7.45L99.54 7.45Q104.24 7.45 104.24 12.79L104.24 12.79L104.24 22.42L106.03 22.42L106.03 23L97.17 23L97.17 22.42L98.29 22.42L98.29 12.02Q98.29 9.59 97.87 9.18L97.87 9.18Q97.68 8.98 97.36 8.98L97.36 8.98Q96.43 8.98 95.73 10.23Q95.02 11.48 95.02 13.40L95.02 13.40L95.02 22.42L96.18 22.42L96.18 23L87.95 23L87.95 22.42L89.07 22.42L89.07 12.02Q89.07 9.59 88.66 9.18L88.66 9.18Q88.46 8.98 88.14 8.98L88.14 8.98Q87.25 8.98 86.53 10.34Q85.81 11.70 85.81 13.59L85.81 13.59L85.81 22.42L86.96 22.42L86.96 23L78.10 23L78.10 22.42L79.86 22.42L79.86 8.34L78.10 8.34ZM114.93 23.32Q110.80 23.32 108.74 21.19Q106.67 19.06 106.67 15.27Q106.67 11.48 108.99 9.46Q111.31 7.45 114.90 7.45L114.90 7.45Q122.16 7.45 121.87 14.74L121.87 14.74L112.85 14.74L112.85 15.99Q112.85 19.13 113.65 20.73Q114.45 22.33 116.43 22.33L116.43 22.33Q120.14 22.33 121.30 18.36L121.30 18.36L121.87 18.46Q121.26 20.76 119.68 22.04Q118.10 23.32 114.93 23.32L114.93 23.32ZM112.88 12.54L112.88 14.10L116.18 14.10L116.18 12.54Q116.18 9.94 115.87 9Q115.57 8.06 114.66 8.06Q113.74 8.06 113.31 9.06Q112.88 10.07 112.88 12.54L112.88 12.54ZM134.26 22.39L136.53 22.39L134.19 15.48L127.86 15.48L125.39 22.39L127.79 22.39L127.79 23L122.90 23L122.90 22.39L124.40 22.39L132.56 0.41L135.18 0.41L143.25 22.39L144.72 22.39L144.72 23L134.26 23L134.26 22.39ZM133.94 14.78L131.15 6.39L128.14 14.78L133.94 14.78ZM145.71 1.21L145.71 0.60L155.47 0.60L155.47 1.21L153.71 1.21L153.71 22.39L155.47 22.39L155.47 23L145.71 23L145.71 22.39L147.47 22.39L147.47 1.21L145.71 1.21Z"/></g>
            
          </svg>
        